<svg xmlns="http://www.w3.org/2000/svg" viewBox="0 0 1126 669" width="1126" height="669">
  <path d="M 1089 243 L 1085 245 L 1082 249 L 1081 252 L 1082 260 L 1084 263 L 1089 266 L 1097 266 L 1104 261 L 1105 251 L 1101 245 L 1097 243 Z M 20 335 L 30 359 L 58 383 L 107 401 L 162 408 L 164 643 L 172 648 L 178 644 L 173 407 L 230 400 L 279 382 L 305 359 L 311 344 L 312 327 L 324 339 L 339 346 L 377 346 L 414 330 L 459 293 L 467 310 L 483 312 L 493 306 L 526 270 L 534 281 L 551 283 L 601 254 L 607 272 L 619 282 L 631 282 L 641 278 L 673 249 L 693 258 L 718 263 L 800 269 L 999 272 L 1005 268 L 1006 262 L 998 255 L 791 255 L 745 251 L 705 243 L 686 234 L 705 206 L 712 189 L 707 174 L 693 171 L 680 178 L 665 197 L 657 218 L 659 235 L 651 245 L 630 260 L 626 258 L 627 233 L 618 223 L 606 224 L 552 260 L 557 228 L 553 221 L 540 219 L 503 266 L 483 286 L 486 260 L 502 230 L 501 220 L 496 215 L 486 214 L 476 223 L 467 252 L 458 266 L 422 303 L 403 316 L 381 326 L 369 329 L 344 327 L 334 321 L 326 309 L 326 285 L 369 265 L 399 247 L 420 228 L 427 216 L 428 204 L 422 193 L 406 186 L 393 186 L 365 197 L 338 221 L 321 246 L 308 275 L 288 282 L 265 259 L 245 250 L 235 250 L 228 257 L 229 268 L 235 273 L 256 280 L 265 289 L 227 300 L 175 310 L 178 234 L 251 206 L 295 184 L 329 156 L 345 127 L 348 112 L 347 91 L 342 74 L 330 54 L 311 36 L 291 25 L 272 20 L 256 20 L 238 25 L 225 33 L 209 50 L 194 77 L 176 140 L 166 221 L 83 258 L 49 280 L 27 304 L 21 318 Z M 277 302 L 288 321 L 291 333 L 291 339 L 289 346 L 284 354 L 277 361 L 267 368 L 251 376 L 227 384 L 215 387 L 195 389 L 194 390 L 185 390 L 184 391 L 174 391 L 173 390 L 173 327 L 174 326 L 223 316 L 271 303 L 275 301 Z M 302 292 L 305 293 L 306 297 L 304 307 L 297 296 L 299 293 Z M 164 239 L 166 241 L 164 248 L 162 311 L 147 314 L 110 316 L 105 319 L 90 340 L 90 349 L 95 355 L 107 356 L 113 351 L 115 346 L 123 336 L 161 329 L 162 330 L 162 390 L 144 391 L 105 384 L 87 378 L 69 369 L 59 362 L 48 351 L 42 341 L 40 334 L 41 320 L 44 313 L 52 302 L 74 283 L 97 269 L 125 255 Z M 405 209 L 405 212 L 399 221 L 384 235 L 358 252 L 336 263 L 335 262 L 340 251 L 348 239 L 369 218 L 387 208 L 403 207 Z M 296 49 L 304 55 L 316 68 L 324 82 L 327 92 L 327 97 L 328 98 L 327 117 L 323 129 L 316 141 L 295 162 L 284 170 L 265 181 L 228 198 L 180 216 L 179 214 L 180 213 L 180 204 L 181 203 L 184 174 L 193 129 L 206 90 L 219 66 L 227 56 L 236 48 L 248 41 L 255 39 L 272 39 L 285 43 Z" fill="#000000" fill-rule="evenodd"/>
</svg>
